
<svg xmlns="http://www.w3.org/2000/svg" viewBox="0 0 48 48" width="48" height="48">
  <linearGradient id="gradient" x1="0%" y1="0%" x2="100%" y2="100%">
    <stop offset="0%" stopColor="#3B82F6" />
    <stop offset="100%" stopColor="#1D4ED8" />
  </linearGradient>
  <rect width="48" height="48" rx="12" fill="url(#gradient)" />
  <path d="M32 16v14c0 1.1-.9 2-2 2H18c-1.1 0-2-.9-2-2V16c0-1.1.9-2 2-2h12c1.1 0 2 .9 2 2zm-2.5 12.5v-11h-11v11h11z" fill="white"/>
  <path d="M20 27h8v2h-8z" fill="white"/>
  <path d="M20 23h8v2h-8z" fill="white"/>
  <path d="M20 19h8v2h-8z" fill="white"/>
  <path d="M12 16v16h2v-8h4v-2h-4v-4h5v-2z" fill="white"/>
  <path d="M34 32v-16h-2v8h-4v2h4v4h-5v2z" fill="white"/>
</svg>
