
<svg xmlns="http://www.w3.org/2000/svg" viewBox="0 0 100 100" width="100" height="100">
  <defs>
    <linearGradient id="gradient" x1="0%" y1="0%" x2="100%" y2="100%">
      <stop offset="0%" stopColor="#3B82F6" />
      <stop offset="100%" stopColor="#1D4ED8" />
    </linearGradient>
  </defs>
  <rect width="100" height="100" rx="20" fill="url(#gradient)" />
  
  <!-- Brain shape -->
  <path 
    d="M50,15 C35,15 20,25 20,45 C20,65 35,80 50,80 C65,80 80,65 80,45 C80,25 65,15 50,15"
    stroke="white" 
    strokeWidth="5" 
    fill="none" 
    strokeLinecap="round"
    strokeLinejoin="round"
  />
  
  <!-- Inner Lines -->
  <path 
    d="M50,15 C40,25 40,45 40,60" 
    stroke="white" 
    strokeWidth="2.5" 
    fill="none" 
    strokeLinecap="round"
  />
  <path 
    d="M50,15 C60,25 60,45 60,60" 
    stroke="white" 
    strokeWidth="2.5" 
    fill="none" 
    strokeLinecap="round"
  />
  <path 
    d="M35,50 C45,50 55,50 65,50" 
    stroke="white" 
    strokeWidth="2" 
    fill="none" 
    strokeLinecap="round"
  />
  
  <!-- Additional neural connections -->
  <path 
    d="M30,35 C40,40 60,40 70,35" 
    stroke="white" 
    strokeWidth="1.5" 
    fill="none" 
    strokeLinecap="round"
  />
  
  <!-- Waves -->
  <path 
    d="M30,85 C40,80 60,80 70,85" 
    stroke="#68D9FF" 
    strokeWidth="4" 
    fill="none" 
    strokeLinecap="round"
  />
  <path 
    d="M25,92 C40,87 60,87 75,92" 
    stroke="#3B99D9" 
    strokeWidth="4" 
    fill="none" 
    strokeLinecap="round"
  />
</svg>
